<mxfile host="Electron" modified="2024-07-11T07:37:00.567Z" agent="Mozilla/5.0 (Windows NT 10.0; Win64; x64) AppleWebKit/537.36 (KHTML, like Gecko) draw.io/24.1.0 Chrome/120.0.6099.109 Electron/28.1.0 Safari/537.36" etag="c4udX4UQhfjrLZuFKD69" version="24.1.0" type="device">
  <diagram name="PÃ¡gina-1" id="XUOU1C3FKZt1UV1VVZFK">
    <mxGraphModel dx="1434" dy="2005" grid="1" gridSize="10" guides="1" tooltips="1" connect="1" arrows="1" fold="1" page="1" pageScale="1" pageWidth="827" pageHeight="1169" math="0" shadow="0">
      <root>
        <mxCell id="0" />
        <mxCell id="1" parent="0" />
        <mxCell id="iXMd2uQkjKP9JATCQmBG-3" value="&lt;font style=&quot;font-size: 16px;&quot;&gt;DC/DC&lt;/font&gt;" style="whiteSpace=wrap;html=1;aspect=fixed;fontSize=8;fontStyle=1;strokeWidth=2;" parent="1" vertex="1">
          <mxGeometry x="130" y="-30" width="590" height="590" as="geometry" />
        </mxCell>
        <mxCell id="iXMd2uQkjKP9JATCQmBG-81" value="" style="group;fontSize=8;fontStyle=1;strokeWidth=2;" parent="1" vertex="1" connectable="0">
          <mxGeometry x="130" y="560" width="587" height="40" as="geometry" />
        </mxCell>
        <mxCell id="iXMd2uQkjKP9JATCQmBG-76" value="VDD_L" style="whiteSpace=wrap;html=1;aspect=fixed;fontSize=8;fontStyle=1;strokeWidth=2;" parent="iXMd2uQkjKP9JATCQmBG-81" vertex="1">
          <mxGeometry x="400" width="40" height="40" as="geometry" />
        </mxCell>
        <mxCell id="iXMd2uQkjKP9JATCQmBG-77" value="VDD_L" style="whiteSpace=wrap;html=1;aspect=fixed;fontSize=8;fontStyle=1;strokeWidth=2;" parent="iXMd2uQkjKP9JATCQmBG-81" vertex="1">
          <mxGeometry x="450" width="40" height="40" as="geometry" />
        </mxCell>
        <mxCell id="iXMd2uQkjKP9JATCQmBG-78" value="VDD_L" style="whiteSpace=wrap;html=1;aspect=fixed;fontSize=8;fontStyle=1;strokeWidth=2;" parent="iXMd2uQkjKP9JATCQmBG-81" vertex="1">
          <mxGeometry x="500" width="40" height="40" as="geometry" />
        </mxCell>
        <mxCell id="iXMd2uQkjKP9JATCQmBG-79" value="VDD_L" style="whiteSpace=wrap;html=1;aspect=fixed;fontSize=8;fontStyle=1;strokeWidth=2;" parent="iXMd2uQkjKP9JATCQmBG-81" vertex="1">
          <mxGeometry x="550" width="40" height="40" as="geometry" />
        </mxCell>
        <mxCell id="iXMd2uQkjKP9JATCQmBG-59" value="GND" style="whiteSpace=wrap;html=1;aspect=fixed;fontSize=8;fontStyle=1;strokeWidth=2;" parent="iXMd2uQkjKP9JATCQmBG-81" vertex="1">
          <mxGeometry width="40" height="40" as="geometry" />
        </mxCell>
        <mxCell id="iXMd2uQkjKP9JATCQmBG-60" value="GND" style="whiteSpace=wrap;html=1;aspect=fixed;fontSize=8;fontStyle=1;strokeWidth=2;" parent="iXMd2uQkjKP9JATCQmBG-81" vertex="1">
          <mxGeometry x="50" width="40" height="40" as="geometry" />
        </mxCell>
        <mxCell id="iXMd2uQkjKP9JATCQmBG-61" value="GND" style="whiteSpace=wrap;html=1;aspect=fixed;fontSize=8;fontStyle=1;strokeWidth=2;" parent="iXMd2uQkjKP9JATCQmBG-81" vertex="1">
          <mxGeometry x="100" width="40" height="40" as="geometry" />
        </mxCell>
        <mxCell id="iXMd2uQkjKP9JATCQmBG-62" value="GND" style="whiteSpace=wrap;html=1;aspect=fixed;fontSize=8;fontStyle=1;strokeWidth=2;" parent="iXMd2uQkjKP9JATCQmBG-81" vertex="1">
          <mxGeometry x="150" width="40" height="40" as="geometry" />
        </mxCell>
        <mxCell id="iXMd2uQkjKP9JATCQmBG-63" value="GND" style="whiteSpace=wrap;html=1;aspect=fixed;fontSize=8;fontStyle=1;strokeWidth=2;" parent="iXMd2uQkjKP9JATCQmBG-81" vertex="1">
          <mxGeometry x="200" width="40" height="40" as="geometry" />
        </mxCell>
        <mxCell id="iXMd2uQkjKP9JATCQmBG-64" value="GND" style="whiteSpace=wrap;html=1;aspect=fixed;fontSize=8;fontStyle=1;strokeWidth=2;" parent="iXMd2uQkjKP9JATCQmBG-81" vertex="1">
          <mxGeometry x="250" width="40" height="40" as="geometry" />
        </mxCell>
        <mxCell id="iXMd2uQkjKP9JATCQmBG-65" value="GND" style="whiteSpace=wrap;html=1;aspect=fixed;fontSize=8;fontStyle=1;strokeWidth=2;" parent="iXMd2uQkjKP9JATCQmBG-81" vertex="1">
          <mxGeometry x="300" width="40" height="40" as="geometry" />
        </mxCell>
        <mxCell id="iXMd2uQkjKP9JATCQmBG-66" value="GND" style="whiteSpace=wrap;html=1;aspect=fixed;fontSize=8;fontStyle=1;strokeWidth=2;" parent="iXMd2uQkjKP9JATCQmBG-81" vertex="1">
          <mxGeometry x="350" width="40" height="40" as="geometry" />
        </mxCell>
        <mxCell id="iXMd2uQkjKP9JATCQmBG-68" value="SPI_CS" style="whiteSpace=wrap;html=1;aspect=fixed;fontSize=8;fontStyle=1;strokeWidth=2;" parent="iXMd2uQkjKP9JATCQmBG-81" vertex="1">
          <mxGeometry width="40" height="40" as="geometry" />
        </mxCell>
        <mxCell id="iXMd2uQkjKP9JATCQmBG-69" value="SPI_CLK" style="whiteSpace=wrap;html=1;aspect=fixed;fontSize=8;fontStyle=1;strokeWidth=2;" parent="iXMd2uQkjKP9JATCQmBG-81" vertex="1">
          <mxGeometry x="50" width="40" height="40" as="geometry" />
        </mxCell>
        <mxCell id="iXMd2uQkjKP9JATCQmBG-70" value="SPI_MISO" style="whiteSpace=wrap;html=1;aspect=fixed;fontSize=8;fontStyle=1;strokeWidth=2;" parent="iXMd2uQkjKP9JATCQmBG-81" vertex="1">
          <mxGeometry x="100" width="40" height="40" as="geometry" />
        </mxCell>
        <mxCell id="iXMd2uQkjKP9JATCQmBG-71" value="SPI_MOSI" style="whiteSpace=wrap;html=1;aspect=fixed;fontSize=8;fontStyle=1;strokeWidth=2;" parent="iXMd2uQkjKP9JATCQmBG-81" vertex="1">
          <mxGeometry x="150" width="40" height="40" as="geometry" />
        </mxCell>
        <mxCell id="iXMd2uQkjKP9JATCQmBG-72" value="RST" style="whiteSpace=wrap;html=1;aspect=fixed;fontSize=8;fontStyle=1;strokeWidth=2;" parent="iXMd2uQkjKP9JATCQmBG-81" vertex="1">
          <mxGeometry x="200" width="40" height="40" as="geometry" />
        </mxCell>
        <mxCell id="iXMd2uQkjKP9JATCQmBG-73" value="D_OUT" style="whiteSpace=wrap;html=1;aspect=fixed;fontSize=8;fontStyle=1;strokeWidth=2;" parent="iXMd2uQkjKP9JATCQmBG-81" vertex="1">
          <mxGeometry x="250" width="40" height="40" as="geometry" />
        </mxCell>
        <mxCell id="iXMd2uQkjKP9JATCQmBG-74" value="A_OUT" style="whiteSpace=wrap;html=1;aspect=fixed;fontSize=8;fontStyle=1;strokeWidth=2;" parent="iXMd2uQkjKP9JATCQmBG-81" vertex="1">
          <mxGeometry x="300" width="40" height="40" as="geometry" />
        </mxCell>
        <mxCell id="iXMd2uQkjKP9JATCQmBG-75" value="VDD_L" style="whiteSpace=wrap;html=1;aspect=fixed;fontSize=8;fontStyle=1;strokeWidth=2;" parent="iXMd2uQkjKP9JATCQmBG-81" vertex="1">
          <mxGeometry x="350" width="40" height="40" as="geometry" />
        </mxCell>
        <mxCell id="iXMd2uQkjKP9JATCQmBG-86" value="" style="group;fontSize=8;fontStyle=1;strokeWidth=2;" parent="1" vertex="1" connectable="0">
          <mxGeometry x="720" y="-30" width="40" height="590" as="geometry" />
        </mxCell>
        <mxCell id="iXMd2uQkjKP9JATCQmBG-50" value="GND_2" style="whiteSpace=wrap;html=1;aspect=fixed;fontSize=8;fontStyle=1;strokeWidth=2;" parent="iXMd2uQkjKP9JATCQmBG-86" vertex="1">
          <mxGeometry y="200" width="40" height="40" as="geometry" />
        </mxCell>
        <mxCell id="iXMd2uQkjKP9JATCQmBG-51" value="GND_2" style="whiteSpace=wrap;html=1;aspect=fixed;fontSize=8;fontStyle=1;strokeWidth=2;" parent="iXMd2uQkjKP9JATCQmBG-86" vertex="1">
          <mxGeometry y="250" width="40" height="40" as="geometry" />
        </mxCell>
        <mxCell id="iXMd2uQkjKP9JATCQmBG-52" value="GND_2" style="whiteSpace=wrap;html=1;aspect=fixed;fontSize=8;fontStyle=1;strokeWidth=2;" parent="iXMd2uQkjKP9JATCQmBG-86" vertex="1">
          <mxGeometry y="300" width="40" height="40" as="geometry" />
        </mxCell>
        <mxCell id="iXMd2uQkjKP9JATCQmBG-53" value="GND_2" style="whiteSpace=wrap;html=1;aspect=fixed;fontSize=8;fontStyle=1;strokeWidth=2;" parent="iXMd2uQkjKP9JATCQmBG-86" vertex="1">
          <mxGeometry y="350" width="40" height="40" as="geometry" />
        </mxCell>
        <mxCell id="iXMd2uQkjKP9JATCQmBG-54" value="FB" style="whiteSpace=wrap;html=1;aspect=fixed;fontSize=8;fontStyle=1;strokeWidth=2;" parent="iXMd2uQkjKP9JATCQmBG-86" vertex="1">
          <mxGeometry y="400" width="40" height="40" as="geometry" />
        </mxCell>
        <mxCell id="iXMd2uQkjKP9JATCQmBG-55" value="GND" style="whiteSpace=wrap;html=1;aspect=fixed;fontSize=8;fontStyle=1;strokeWidth=2;" parent="iXMd2uQkjKP9JATCQmBG-86" vertex="1">
          <mxGeometry y="450" width="40" height="40" as="geometry" />
        </mxCell>
        <mxCell id="iXMd2uQkjKP9JATCQmBG-56" value="GND" style="whiteSpace=wrap;html=1;aspect=fixed;fontSize=8;fontStyle=1;strokeWidth=2;" parent="iXMd2uQkjKP9JATCQmBG-86" vertex="1">
          <mxGeometry y="500" width="40" height="40" as="geometry" />
        </mxCell>
        <mxCell id="iXMd2uQkjKP9JATCQmBG-57" value="GND" style="whiteSpace=wrap;html=1;aspect=fixed;fontSize=8;fontStyle=1;strokeWidth=2;" parent="iXMd2uQkjKP9JATCQmBG-86" vertex="1">
          <mxGeometry y="550" width="40" height="40" as="geometry" />
        </mxCell>
        <mxCell id="iXMd2uQkjKP9JATCQmBG-82" value="V_OUT" style="whiteSpace=wrap;html=1;aspect=fixed;fontSize=8;fontStyle=1;strokeWidth=2;" parent="iXMd2uQkjKP9JATCQmBG-86" vertex="1">
          <mxGeometry width="40" height="40" as="geometry" />
        </mxCell>
        <mxCell id="iXMd2uQkjKP9JATCQmBG-83" value="V_OUT" style="whiteSpace=wrap;html=1;aspect=fixed;fontSize=8;fontStyle=1;strokeWidth=2;" parent="iXMd2uQkjKP9JATCQmBG-86" vertex="1">
          <mxGeometry y="50" width="40" height="40" as="geometry" />
        </mxCell>
        <mxCell id="iXMd2uQkjKP9JATCQmBG-84" value="V_OUT" style="whiteSpace=wrap;html=1;aspect=fixed;fontSize=8;fontStyle=1;strokeWidth=2;" parent="iXMd2uQkjKP9JATCQmBG-86" vertex="1">
          <mxGeometry y="100" width="40" height="40" as="geometry" />
        </mxCell>
        <mxCell id="iXMd2uQkjKP9JATCQmBG-85" value="V_OUT" style="whiteSpace=wrap;html=1;aspect=fixed;fontSize=8;fontStyle=1;strokeWidth=2;" parent="iXMd2uQkjKP9JATCQmBG-86" vertex="1">
          <mxGeometry y="150" width="40" height="40" as="geometry" />
        </mxCell>
        <mxCell id="iXMd2uQkjKP9JATCQmBG-87" value="" style="group;fontSize=8;fontStyle=1;strokeWidth=2;" parent="1" vertex="1" connectable="0">
          <mxGeometry x="90" y="-30" width="40" height="590" as="geometry" />
        </mxCell>
        <mxCell id="iXMd2uQkjKP9JATCQmBG-88" value="GND_2" style="whiteSpace=wrap;html=1;aspect=fixed;fontSize=8;fontStyle=1;strokeWidth=2;" parent="iXMd2uQkjKP9JATCQmBG-87" vertex="1">
          <mxGeometry y="200" width="40" height="40" as="geometry" />
        </mxCell>
        <mxCell id="iXMd2uQkjKP9JATCQmBG-89" value="GND_2" style="whiteSpace=wrap;html=1;aspect=fixed;fontSize=8;fontStyle=1;strokeWidth=2;" parent="iXMd2uQkjKP9JATCQmBG-87" vertex="1">
          <mxGeometry y="250" width="40" height="40" as="geometry" />
        </mxCell>
        <mxCell id="iXMd2uQkjKP9JATCQmBG-90" value="GND_2" style="whiteSpace=wrap;html=1;aspect=fixed;fontSize=8;fontStyle=1;strokeWidth=2;" parent="iXMd2uQkjKP9JATCQmBG-87" vertex="1">
          <mxGeometry y="300" width="40" height="40" as="geometry" />
        </mxCell>
        <mxCell id="iXMd2uQkjKP9JATCQmBG-91" value="GND_2" style="whiteSpace=wrap;html=1;aspect=fixed;fontSize=8;fontStyle=1;strokeWidth=2;" parent="iXMd2uQkjKP9JATCQmBG-87" vertex="1">
          <mxGeometry y="350" width="40" height="40" as="geometry" />
        </mxCell>
        <mxCell id="iXMd2uQkjKP9JATCQmBG-92" value="GND" style="whiteSpace=wrap;html=1;aspect=fixed;fontSize=8;fontStyle=1;strokeWidth=2;" parent="iXMd2uQkjKP9JATCQmBG-87" vertex="1">
          <mxGeometry y="400" width="40" height="40" as="geometry" />
        </mxCell>
        <mxCell id="iXMd2uQkjKP9JATCQmBG-93" value="GND" style="whiteSpace=wrap;html=1;aspect=fixed;fontSize=8;fontStyle=1;strokeWidth=2;" parent="iXMd2uQkjKP9JATCQmBG-87" vertex="1">
          <mxGeometry y="450" width="40" height="40" as="geometry" />
        </mxCell>
        <mxCell id="iXMd2uQkjKP9JATCQmBG-94" value="GND" style="whiteSpace=wrap;html=1;aspect=fixed;fontSize=8;fontStyle=1;strokeWidth=2;" parent="iXMd2uQkjKP9JATCQmBG-87" vertex="1">
          <mxGeometry y="500" width="40" height="40" as="geometry" />
        </mxCell>
        <mxCell id="iXMd2uQkjKP9JATCQmBG-95" value="GND" style="whiteSpace=wrap;html=1;aspect=fixed;fontSize=8;fontStyle=1;strokeWidth=2;" parent="iXMd2uQkjKP9JATCQmBG-87" vertex="1">
          <mxGeometry y="550" width="40" height="40" as="geometry" />
        </mxCell>
        <mxCell id="iXMd2uQkjKP9JATCQmBG-96" value="V_IN" style="whiteSpace=wrap;html=1;aspect=fixed;fontSize=8;fontStyle=1;strokeWidth=2;" parent="iXMd2uQkjKP9JATCQmBG-87" vertex="1">
          <mxGeometry width="40" height="40" as="geometry" />
        </mxCell>
        <mxCell id="iXMd2uQkjKP9JATCQmBG-97" value="V_IN" style="whiteSpace=wrap;html=1;aspect=fixed;fontSize=8;fontStyle=1;strokeWidth=2;" parent="iXMd2uQkjKP9JATCQmBG-87" vertex="1">
          <mxGeometry y="50" width="40" height="40" as="geometry" />
        </mxCell>
        <mxCell id="iXMd2uQkjKP9JATCQmBG-98" value="V_IN" style="whiteSpace=wrap;html=1;aspect=fixed;fontSize=8;fontStyle=1;strokeWidth=2;" parent="iXMd2uQkjKP9JATCQmBG-87" vertex="1">
          <mxGeometry y="100" width="40" height="40" as="geometry" />
        </mxCell>
        <mxCell id="iXMd2uQkjKP9JATCQmBG-99" value="V_IN" style="whiteSpace=wrap;html=1;aspect=fixed;fontSize=8;fontStyle=1;strokeWidth=2;" parent="iXMd2uQkjKP9JATCQmBG-87" vertex="1">
          <mxGeometry y="150" width="40" height="40" as="geometry" />
        </mxCell>
        <mxCell id="iXMd2uQkjKP9JATCQmBG-100" value="" style="group;fontSize=8;fontStyle=1;strokeWidth=2;" parent="1" vertex="1" connectable="0">
          <mxGeometry x="130" y="-70" width="587" height="40" as="geometry" />
        </mxCell>
        <mxCell id="iXMd2uQkjKP9JATCQmBG-101" value="L_OUT" style="whiteSpace=wrap;html=1;aspect=fixed;fontSize=8;fontStyle=1;strokeWidth=2;" parent="iXMd2uQkjKP9JATCQmBG-100" vertex="1">
          <mxGeometry x="400" width="40" height="40" as="geometry" />
        </mxCell>
        <mxCell id="iXMd2uQkjKP9JATCQmBG-102" value="L_OUT" style="whiteSpace=wrap;html=1;aspect=fixed;fontSize=8;fontStyle=1;strokeWidth=2;" parent="iXMd2uQkjKP9JATCQmBG-100" vertex="1">
          <mxGeometry x="450" width="40" height="40" as="geometry" />
        </mxCell>
        <mxCell id="iXMd2uQkjKP9JATCQmBG-103" value="L_OUT" style="whiteSpace=wrap;html=1;aspect=fixed;fontSize=8;fontStyle=1;strokeWidth=2;" parent="iXMd2uQkjKP9JATCQmBG-100" vertex="1">
          <mxGeometry x="500" width="40" height="40" as="geometry" />
        </mxCell>
        <mxCell id="iXMd2uQkjKP9JATCQmBG-104" value="L_OUT" style="whiteSpace=wrap;html=1;aspect=fixed;fontSize=8;fontStyle=1;strokeWidth=2;" parent="iXMd2uQkjKP9JATCQmBG-100" vertex="1">
          <mxGeometry x="550" width="40" height="40" as="geometry" />
        </mxCell>
        <mxCell id="iXMd2uQkjKP9JATCQmBG-105" value="GND" style="whiteSpace=wrap;html=1;aspect=fixed;fontSize=8;fontStyle=1;strokeWidth=2;" parent="iXMd2uQkjKP9JATCQmBG-100" vertex="1">
          <mxGeometry width="40" height="40" as="geometry" />
        </mxCell>
        <mxCell id="iXMd2uQkjKP9JATCQmBG-106" value="GND" style="whiteSpace=wrap;html=1;aspect=fixed;fontSize=8;fontStyle=1;strokeWidth=2;" parent="iXMd2uQkjKP9JATCQmBG-100" vertex="1">
          <mxGeometry x="50" width="40" height="40" as="geometry" />
        </mxCell>
        <mxCell id="iXMd2uQkjKP9JATCQmBG-107" value="GND" style="whiteSpace=wrap;html=1;aspect=fixed;fontSize=8;fontStyle=1;strokeWidth=2;" parent="iXMd2uQkjKP9JATCQmBG-100" vertex="1">
          <mxGeometry x="100" width="40" height="40" as="geometry" />
        </mxCell>
        <mxCell id="iXMd2uQkjKP9JATCQmBG-108" value="GND" style="whiteSpace=wrap;html=1;aspect=fixed;fontSize=8;fontStyle=1;strokeWidth=2;" parent="iXMd2uQkjKP9JATCQmBG-100" vertex="1">
          <mxGeometry x="150" width="40" height="40" as="geometry" />
        </mxCell>
        <mxCell id="iXMd2uQkjKP9JATCQmBG-109" value="GND" style="whiteSpace=wrap;html=1;aspect=fixed;fontSize=8;fontStyle=1;strokeWidth=2;" parent="iXMd2uQkjKP9JATCQmBG-100" vertex="1">
          <mxGeometry x="200" width="40" height="40" as="geometry" />
        </mxCell>
        <mxCell id="iXMd2uQkjKP9JATCQmBG-110" value="GND" style="whiteSpace=wrap;html=1;aspect=fixed;fontSize=8;fontStyle=1;strokeWidth=2;" parent="iXMd2uQkjKP9JATCQmBG-100" vertex="1">
          <mxGeometry x="250" width="40" height="40" as="geometry" />
        </mxCell>
        <mxCell id="iXMd2uQkjKP9JATCQmBG-111" value="GND" style="whiteSpace=wrap;html=1;aspect=fixed;fontSize=8;fontStyle=1;strokeWidth=2;" parent="iXMd2uQkjKP9JATCQmBG-100" vertex="1">
          <mxGeometry x="300" width="40" height="40" as="geometry" />
        </mxCell>
        <mxCell id="iXMd2uQkjKP9JATCQmBG-112" value="GND" style="whiteSpace=wrap;html=1;aspect=fixed;fontSize=8;fontStyle=1;strokeWidth=2;" parent="iXMd2uQkjKP9JATCQmBG-100" vertex="1">
          <mxGeometry x="350" width="40" height="40" as="geometry" />
        </mxCell>
        <mxCell id="iXMd2uQkjKP9JATCQmBG-113" value="L_IN" style="whiteSpace=wrap;html=1;aspect=fixed;fontSize=8;fontStyle=1;strokeWidth=2;" parent="iXMd2uQkjKP9JATCQmBG-100" vertex="1">
          <mxGeometry width="40" height="40" as="geometry" />
        </mxCell>
        <mxCell id="iXMd2uQkjKP9JATCQmBG-114" value="L_IN" style="whiteSpace=wrap;html=1;aspect=fixed;fontSize=8;fontStyle=1;strokeWidth=2;" parent="iXMd2uQkjKP9JATCQmBG-100" vertex="1">
          <mxGeometry x="50" width="40" height="40" as="geometry" />
        </mxCell>
        <mxCell id="iXMd2uQkjKP9JATCQmBG-115" value="L_IN" style="whiteSpace=wrap;html=1;aspect=fixed;fontSize=8;fontStyle=1;strokeWidth=2;" parent="iXMd2uQkjKP9JATCQmBG-100" vertex="1">
          <mxGeometry x="100" width="40" height="40" as="geometry" />
        </mxCell>
        <mxCell id="iXMd2uQkjKP9JATCQmBG-116" value="L_IN" style="whiteSpace=wrap;html=1;aspect=fixed;fontSize=8;fontStyle=1;strokeWidth=2;" parent="iXMd2uQkjKP9JATCQmBG-100" vertex="1">
          <mxGeometry x="150" width="40" height="40" as="geometry" />
        </mxCell>
        <mxCell id="iXMd2uQkjKP9JATCQmBG-117" value="L_IN" style="whiteSpace=wrap;html=1;aspect=fixed;fontSize=8;fontStyle=1;strokeWidth=2;" parent="iXMd2uQkjKP9JATCQmBG-100" vertex="1">
          <mxGeometry x="200" width="40" height="40" as="geometry" />
        </mxCell>
        <mxCell id="iXMd2uQkjKP9JATCQmBG-118" value="L_IN" style="whiteSpace=wrap;html=1;aspect=fixed;fontSize=8;fontStyle=1;strokeWidth=2;" parent="iXMd2uQkjKP9JATCQmBG-100" vertex="1">
          <mxGeometry x="250" width="40" height="40" as="geometry" />
        </mxCell>
        <mxCell id="iXMd2uQkjKP9JATCQmBG-119" value="L_OUT" style="whiteSpace=wrap;html=1;aspect=fixed;fontSize=8;fontStyle=1;strokeWidth=2;" parent="iXMd2uQkjKP9JATCQmBG-100" vertex="1">
          <mxGeometry x="300" width="40" height="40" as="geometry" />
        </mxCell>
        <mxCell id="iXMd2uQkjKP9JATCQmBG-120" value="L_OUT" style="whiteSpace=wrap;html=1;aspect=fixed;fontSize=8;fontStyle=1;strokeWidth=2;" parent="iXMd2uQkjKP9JATCQmBG-100" vertex="1">
          <mxGeometry x="350" width="40" height="40" as="geometry" />
        </mxCell>
        <mxCell id="iXMd2uQkjKP9JATCQmBG-121" value="" style="ellipse;whiteSpace=wrap;html=1;aspect=fixed;fontStyle=1;strokeWidth=2;" parent="1" vertex="1">
          <mxGeometry x="160" width="80" height="80" as="geometry" />
        </mxCell>
      </root>
    </mxGraphModel>
  </diagram>
</mxfile>
